<?xml version="1.0" encoding="UTF-8"?>
<svg version="1.1" xmlns="http://www.w3.org/2000/svg" width="204" height="192">
<path d="M0 0 C67.32 0 134.64 0 204 0 C204 63.36 204 126.72 204 192 C136.68 192 69.36 192 0 192 C0 128.64 0 65.28 0 0 Z " fill="#01010E" transform="translate(0,0)"/>
<path d="M0 0 C6.45730125 3.84566597 11.70700868 9.43286585 16.9375 14.75 C17.70384766 15.51699219 18.47019531 16.28398438 19.25976562 17.07421875 C26.03587814 23.90434811 26.03587814 23.90434811 26.42578125 30.734375 C25.3031158 36.70819113 20.44340786 40.72852196 16.0625 44.5625 C14.52925224 45.92602977 12.99913361 47.29247031 11.47705078 48.66845703 C10.01443207 49.98698967 8.53655465 51.28853157 7.05859375 52.58984375 C4.78824443 54.73380661 4.78824443 54.73380661 4.953125 57.06640625 C6.25251037 59.46639042 7.76982427 61.05782191 9.75 62.9375 C10.83087891 63.98164063 10.83087891 63.98164063 11.93359375 65.046875 C12.61550781 65.69140625 13.29742187 66.3359375 14 67 C21.65869365 74.31830727 21.65869365 74.31830727 22.4375 80.4375 C21.92682899 84.59582111 20.55170509 86.73062785 18 90 C13.58696683 89.56658884 11.15667287 86.5721337 8.2109375 83.57421875 C7.66643951 83.03021927 7.12194153 82.48621979 6.5609436 81.92573547 C5.41267117 80.77512559 4.26808317 79.62082856 3.12695312 78.46313477 C1.38304804 76.69565682 -0.37376931 74.94185191 -2.1328125 73.18945312 C-3.24818992 72.06849791 -4.36279939 70.94677793 -5.4765625 69.82421875 C-6.26252304 69.03962532 -6.26252304 69.03962532 -7.06436157 68.23918152 C-10.9548719 64.27259393 -12.74042053 61.73052983 -13.5625 56.25 C-13.34399742 50.56893295 -9.88794463 47.79639178 -6 44 C-4.80440208 42.79584498 -3.61053811 41.58996702 -2.41796875 40.3828125 C1.03329203 36.89991297 4.51118712 33.4452632 8 30 C1.29605014 22.03186028 -5.8102607 14.46558366 -14 8 C-13.875 6.25 -13.875 6.25 -13 4 C-8.70979046 0.32267754 -5.60997418 -0.96723693 0 0 Z " fill="#D11B75" transform="translate(96,51)"/>
<path d="M0 0 C6.45730125 3.84566597 11.70700868 9.43286585 16.9375 14.75 C17.70384766 15.51699219 18.47019531 16.28398438 19.25976562 17.07421875 C25.89703301 23.76439615 25.89703301 23.76439615 26.3125 28.75 C26.22360289 33.23526336 24.94832454 35.53571866 22 39 C19.41261921 41.43431055 16.74619624 43.7470526 14 46 C12.80842459 43.61684918 12.99192817 42.32675806 13.125 39.6875 C13.19098284 35.58336733 12.45409732 33.37438382 10 30 C10 29.34 10 28.68 10 28 C9.11030518 27.8448291 9.11030518 27.8448291 8.20263672 27.68652344 C5.64345177 26.88887014 4.60219076 25.93720455 2.7578125 24.015625 C1.87029297 23.10683594 1.87029297 23.10683594 0.96484375 22.1796875 C0.35769531 21.54289062 -0.24945313 20.90609375 -0.875 20.25 C-5.07635827 15.89504369 -9.27400745 11.78657507 -14 8 C-13.875 6.25 -13.875 6.25 -13 4 C-8.70979046 0.32267754 -5.60997418 -0.96723693 0 0 Z " fill="#D73786" transform="translate(96,51)"/>
<path d="M0 0 C1.66779859 1.42954165 3.33446534 2.86015387 4.99609375 4.296875 C6.26087306 5.37181414 7.54295054 6.42701396 8.84765625 7.453125 C14.35431518 11.85845214 18.45600824 16.49427534 19.5625 23.625 C18.90095221 27.59428676 17.45655037 29.85254484 15 33 C11.83145253 32.42308522 10.21773541 31.58353113 7.984375 29.27734375 C7.45585938 28.73916016 6.92734375 28.20097656 6.3828125 27.64648438 C5.84398438 27.08251953 5.30515625 26.51855469 4.75 25.9375 C4.19570312 25.36966797 3.64140625 24.80183594 3.0703125 24.21679688 C1.70665786 22.81787531 0.35239583 21.40980886 -1 20 C-0.67 19.34 -0.34 18.68 0 18 C0.33 18.33 0.66 18.66 1 19 C1.02697137 16.39576408 1.04682489 13.79180756 1.0625 11.1875 C1.07087891 10.44951172 1.07925781 9.71152344 1.08789062 8.95117188 C1.10259828 5.70077932 1.03531702 3.10595105 0 0 Z " fill="#D93887" transform="translate(99,108)"/>
<path d="M0 0 C2.97611015 1.66850464 5.66186988 3.50397018 8 6 C8 9.57643579 7.74637226 13.12176091 7.5 16.6875 C7.45230469 17.38939453 7.40460938 18.09128906 7.35546875 18.81445312 C7.23787848 20.54303016 7.11905865 22.27152348 7 24 C6.01 24.33 5.02 24.66 4 25 C3.20335938 24.19175781 2.40671875 23.38351563 1.5859375 22.55078125 C0.51576205 21.47121829 -0.55455821 20.39179887 -1.625 19.3125 C-2.14707031 18.78205078 -2.66914062 18.25160156 -3.20703125 17.70507812 C-6.64737462 14.24349806 -10.2059236 11.07058135 -14 8 C-13.875 6.25 -13.875 6.25 -13 4 C-8.70979046 0.32267754 -5.60997418 -0.96723693 0 0 Z " fill="#D01D75" transform="translate(96,51)"/>
<path d="M0 0 C0.66 0 1.32 0 2 0 C5.67739638 5.40117593 6.99304969 9.45828517 6 16 C3.91782756 21.02171 -0.37632886 24.99906995 -4 29 C-8.02154795 25.1081794 -9.23794944 23.04973313 -9.625 17.4375 C-9.63470481 13.40514989 -9.40836671 11.55375797 -6.9921875 8.27734375 C-5.36800396 6.71171228 -3.693914 5.19579791 -1.96875 3.7421875 C-1.3190625 3.16726562 -0.669375 2.59234375 0 2 C0 1.34 0 0.68 0 0 Z " fill="#AD1259" transform="translate(104,79)"/>
<path d="M0 0 C3.39114675 1.40323314 5.08201251 2.86850802 7 6 C7.2487793 8.38183594 7.2487793 8.38183594 7.07421875 10.984375 C6.99204102 12.38623047 6.99204102 12.38623047 6.90820312 13.81640625 C6.83537109 14.78449219 6.76253906 15.75257812 6.6875 16.75 C6.62626953 17.73355469 6.56503906 18.71710938 6.50195312 19.73046875 C6.34895151 22.15495584 6.18114966 24.57748027 6 27 C2 22.25 2 22.25 2 20 C1.360625 19.896875 0.72125 19.79375 0.0625 19.6875 C-0.618125 19.460625 -1.29875 19.23375 -2 19 C-2.33 18.01 -2.66 17.02 -3 16 C-2.34 16 -1.68 16 -1 16 C-1.01160156 14.92878906 -1.02320312 13.85757813 -1.03515625 12.75390625 C-1.04453299 11.35677257 -1.05363331 9.95963701 -1.0625 8.5625 C-1.07506836 7.50192383 -1.07506836 7.50192383 -1.08789062 6.41992188 C-1.09653588 4.61306441 -1.05220011 2.80612397 -1 1 C-0.67 0.67 -0.34 0.34 0 0 Z " fill="#D62B7F" transform="translate(104,59)"/>
<path d="M0 0 C1.13199353 0.9080162 2.25532363 1.82683826 3.375 2.75 C4.00148438 3.26046875 4.62796875 3.7709375 5.2734375 4.296875 C7.65057414 6.64174282 8.91853144 8.731208 9.13525391 12.10644531 C9.08288574 12.83959961 9.03051758 13.57275391 8.9765625 14.328125 C8.925 15.12734375 8.8734375 15.9265625 8.8203125 16.75 C8.75585938 17.575 8.69140625 18.4 8.625 19.25 C8.56828125 20.09046875 8.5115625 20.9309375 8.453125 21.796875 C8.31209668 23.86529042 8.15738212 25.9327646 8 28 C0.76785714 22.10714286 0.76785714 22.10714286 -1 18 C-0.34 18.33 0.32 18.66 1 19 C1.02697137 16.39576408 1.04682489 13.79180756 1.0625 11.1875 C1.07087891 10.44951172 1.07925781 9.71152344 1.08789062 8.95117188 C1.10259828 5.70077932 1.03531702 3.10595105 0 0 Z " fill="#D82B7F" transform="translate(99,108)"/>
<path d="M0 0 C0 6.66666667 0 13.33333333 0 20 C-6.30646587 12.56160435 -6.30646587 12.56160435 -6.22265625 5.9765625 C-5.74582937 1.74367831 -4.19600408 0 0 0 Z " fill="#C30E66" transform="translate(89,99)"/>
<path d="M0 0 C0.66 0.66 1.32 1.32 2 2 C-0.31 2 -2.62 2 -5 2 C-5 5.63 -5 9.26 -5 13 C-9.38968456 13 -10.76905739 10.87194899 -14 8 C-13.875 6.25 -13.875 6.25 -13 4 C-8.69634589 0.31115362 -5.63113989 -0.64974691 0 0 Z " fill="#B50E5F" transform="translate(96,51)"/>
<path d="M0 0 C0.66 0.33 1.32 0.66 2 1 C2 3.97 2 6.94 2 10 C0.35 8.68 -1.3 7.36 -3 6 C-2.42655063 3.13275314 -2.1385485 2.1385485 0 0 Z " fill="#A70C56" transform="translate(85,53)"/>
</svg>
